<?xml version="1.0" encoding="UTF-8"?>
<svg width="256" height="256" viewBox="0 0 256 256" xmlns="http://www.w3.org/2000/svg">
  <defs>
    <!-- Professional gradient for enterprise feel -->
    <linearGradient id="primaryGradient" x1="0%" y1="0%" x2="100%" y2="100%">
      <stop offset="0%" style="stop-color:#667eea;stop-opacity:1" />
      <stop offset="100%" style="stop-color:#764ba2;stop-opacity:1" />
    </linearGradient>
    
    <!-- Accent gradient for highlights -->
    <linearGradient id="accentGradient" x1="0%" y1="0%" x2="100%" y2="100%">
      <stop offset="0%" style="stop-color:#f093fb;stop-opacity:1" />
      <stop offset="100%" style="stop-color:#f5576c;stop-opacity:1" />
    </linearGradient>
    
    <!-- Network node glow effect -->
    <filter id="glow">
      <feGaussianBlur stdDeviation="3" result="coloredBlur"/>
      <feMerge> 
        <feMergeNode in="coloredBlur"/>
        <feMergeNode in="SourceGraphic"/>
      </feMerge>
    </filter>
    
    <!-- Drop shadow for depth -->
    <filter id="dropshadow">
      <feDropShadow dx="2" dy="4" stdDeviation="3" flood-opacity="0.3"/>
    </filter>
  </defs>
  
  <!-- Background circle with subtle gradient -->
  <circle cx="128" cy="128" r="120" fill="url(#primaryGradient)" filter="url(#dropshadow)" opacity="0.95"/>
  
  <!-- Central Atlas globe/sphere -->
  <circle cx="128" cy="128" r="45" fill="none" stroke="white" stroke-width="3" opacity="0.8"/>
  <circle cx="128" cy="128" r="30" fill="none" stroke="white" stroke-width="2" opacity="0.6"/>
  <circle cx="128" cy="128" r="15" fill="white" opacity="0.9"/>
  
  <!-- Network connection lines radiating outward -->
  <g stroke="white" stroke-width="2" opacity="0.7">
    <!-- Primary axes -->
    <line x1="128" y1="83" x2="128" y2="40" />
    <line x1="128" y1="173" x2="128" y2="216" />
    <line x1="83" y1="128" x2="40" y2="128" />
    <line x1="173" y1="128" x2="216" y2="128" />
    
    <!-- Diagonal connections -->
    <line x1="105" y1="105" x2="75" y2="75" />
    <line x1="151" y1="105" x2="181" y2="75" />
    <line x1="105" y1="151" x2="75" y2="181" />
    <line x1="151" y1="151" x2="181" y2="181" />
  </g>
  
  <!-- Network nodes at connection endpoints -->
  <g fill="url(#accentGradient)" filter="url(#glow)">
    <!-- Cardinal direction nodes -->
    <circle cx="128" cy="40" r="8" />
    <circle cx="128" cy="216" r="8" />
    <circle cx="40" cy="128" r="8" />
    <circle cx="216" cy="128" r="8" />
    
    <!-- Diagonal nodes -->
    <circle cx="75" cy="75" r="6" />
    <circle cx="181" cy="75" r="6" />
    <circle cx="75" cy="181" r="6" />
    <circle cx="181" cy="181" r="6" />
    
    <!-- Mid-point nodes for complexity -->
    <circle cx="128" cy="61" r="4" />
    <circle cx="128" cy="195" r="4" />
    <circle cx="61" cy="128" r="4" />
    <circle cx="195" cy="128" r="4" />
  </g>
  
  <!-- Atlas orbital rings for sophisticated look -->
  <g fill="none" stroke="white" stroke-width="1.5" opacity="0.4">
    <ellipse cx="128" cy="128" rx="65" ry="25" />
    <ellipse cx="128" cy="128" rx="65" ry="25" transform="rotate(60 128 128)" />
    <ellipse cx="128" cy="128" rx="65" ry="25" transform="rotate(120 128 128)" />
  </g>
  
  <!-- Subtle data flow indicators -->
  <g fill="url(#accentGradient)" opacity="0.6">
    <!-- Small flowing dots on main axes -->
    <circle cx="110" cy="50" r="2">
      <animateTransform attributeName="transform" type="translate" 
        values="0,0; 18,78; 0,0" dur="3s" repeatCount="indefinite"/>
    </circle>
    <circle cx="146" cy="206" r="2">
      <animateTransform attributeName="transform" type="translate" 
        values="0,0; -18,-78; 0,0" dur="3s" repeatCount="indefinite"/>
    </circle>
    <circle cx="50" cy="110" r="2">
      <animateTransform attributeName="transform" type="translate" 
        values="0,0; 78,18; 0,0" dur="3s" repeatCount="indefinite"/>
    </circle>
    <circle cx="206" cy="146" r="2">
      <animateTransform attributeName="transform" type="translate" 
        values="0,0; -78,-18; 0,0" dur="3s" repeatCount="indefinite"/>
    </circle>
  </g>
  
  <!-- Enterprise-style border -->
  <circle cx="128" cy="128" r="120" fill="none" stroke="white" stroke-width="1" opacity="0.3"/>
</svg>
